<?xml version="1.0" encoding="utf-8"?>
<?xml-stylesheet type="text/xsl" href="rss1.xsl"?>
<rss version="2.0" xmlns:atom="http://www.w3.org/2005/Atom" xmlns:content="http://purl.org/rss/1.0/modules/content/" xmlns:dc="http://purl.org/dc/elements/1.1/" xmlns:media="http://search.yahoo.com/mrss/">
<channel>
 <title>Getty</title>
 <link>http://www.gettyimg.com/</link>
 <atom:link href="http://www.gettyimg.com/" rel="self" type="application/rss+xml" />

 
                <item>
                <title><![CDATA[【HD Live Performances】HDTV - Maroon 5 - Live @ The Town 2023 HDTV H264 1080i DD5.1-ilya2129]]></title>
                <link><![CDATA[https://sharemania.us/threads/maroon-5-live-the-town-2023-hdtv-h264-1080i-dd5-1-ilya2129.227980/]]></link>
                <description><![CDATA[<article>
<blockquote class="messageText SelectQuoteContainer ugc baseHtml">
<div style="text-align: center"><img src="https://i122.fastpic.org/big/2023/0903/f2/ce9f496df0f384cc9c966a9eba2bd3f2.png" class="bbCodeImage LbImage" alt="[​IMG]" data-url="https://i122.fastpic.org/big/2023/0903/f2/ce9f496df0f384cc9c966a9eba2bd3f2.png" style=""><br>
<br>
<a href="https://postimg.cc/2VpQ8bNZ" target="_blank" class="externalLink" rel="nofollow"><img src="https://i.postimg.cc/2VpQ8bNZ/vlcsnap-2023-09-08-13h15m16s254.png" class="bbCodeImage LbImage" alt="[​IMG]" data-url="https://i.postimg.cc/2VpQ8bNZ/vlcsnap-2023-09-08-13h15m16s254.png"></a> <a href="https://postimg.cc/V0XbbgPb" target="_blank" class="externalLink" rel="nofollow"><img src="https://i.postimg.cc/V0XbbgPb/vlcsnap-2023-09-08-13h15m20s752.png" class="bbCodeImage LbImage" alt="[​IMG]" data-url="https://i.postimg.cc/V0XbbgPb/vlcsnap-2023-09-08-13h15m20s752.png"></a> <a href="https://postimg.cc/yJr9qWTW" target="_blank" class="externalLink" rel="nofollow"><img src="https://i.postimg.cc/yJr9qWTW/vlcsnap-2023-09-08-13h15m24s486.png" class="bbCodeImage LbImage" alt="[​IMG]" data-url="https://i.postimg.cc/yJr9qWTW/vlcsnap-2023-09-08-13h15m24s486.png"></a> <a href="https://postimg.cc/dh6rB5k2" target="_blank" class="externalLink" rel="nofollow"><img src="https://i.postimg.cc/dh6rB5k2/vlcsnap-2023-09-08-13h15m32s324.png" class="bbCodeImage LbImage" alt="[​IMG]" data-url="https://i.postimg.cc/dh6rB5k2/vlcsnap-2023-09-08-13h15m32s324.png"></a> <a href="https://postimg.cc/Cd88thnL" target="_blank" class="externalLink" rel="nofollow"><img src="https://i.postimg.cc/Cd88thnL/vlcsnap-2023-09-08-13h15m36s015.png" class="bbCodeImage LbImage" alt="[​IMG]" data-url="https://i.postimg.cc/Cd88thnL/vlcsnap-2023-09-08-13h15m36s015.png"></a> <a href="https://postimg.cc/HcqyxKRg" target="_blank" class="externalLink" rel="nofollow"><img src="https://i.postimg.cc/HcqyxKRg/vlcsnap-2023-09-08-13h15m40s318.png" class="bbCodeImage LbImage" alt="[​IMG]" data-url="https://i.postimg.cc/HcqyxKRg/vlcsnap-2023-09-08-13h15m40s318.png"></a> <br>
​</div><br>
<div class="bbCodeBlock bbCodeCode">
<div class="type">Code:</div>
<pre>General
ID                                       : 1 (0x1)
Complete name                            : D:\Maroon 5 - Live @ The Town 2023 HDTV H264 1080i DD5.1-ilya2129.ts
Format                                   : MPEG-TS
File size                                : 9.06 GiB
Duration                                 : 1 h 32 min
Overall bit rate mode                    : Variable
Overall bit rate                         : 14.0 Mb/s
Frame rate                               : 29.970 FPS

Video
ID                                       : 302 (0x12E)
Menu ID                                  : 1 (0x1)
Format                                   : AVC
Format/Info                              : Advanced Video Codec
Format profile                           : High@L4
Format settings                          : CABAC / 4 Ref Frames
Format settings, CABAC                   : Yes
Format settings, Reference frames        : 4 frames
Codec ID                                 : 27
Duration                                 : 1 h 32 min
Bit rate mode                            : Variable
Bit rate                                 : 12.7 Mb/s
Maximum bit rate                         : 18.1 Mb/s
Width                                    : 1 920 pixels
Height                                   : 1 080 pixels
Display aspect ratio                     : 16:9
Frame rate                               : 29.970 (30000/1001) FPS
Standard                                 : Component
Color space                              : YUV
Chroma subsampling                       : 4:2:0
Bit depth                                : 8 bits
Scan type                                : MBAFF
Scan type, store method                  : Interleaved fields
Scan order                               : Top Field First
Bits/(Pixel*Frame)                       : 0.205
Stream size                              : 8.23 GiB (91%)
Color range                              : Limited
Color primaries                          : BT.709
Transfer characteristics                 : BT.709
Matrix coefficients                      : BT.709

Audio #1
ID                                       : 303 (0x12F)
Menu ID                                  : 1 (0x1)
Format                                   : AC-3
Format/Info                              : Audio Coding 3
Commercial name                          : Dolby Digital
Codec ID                                 : 129
Duration                                 : 1 h 32 min
Bit rate mode                            : Constant
Bit rate                                 : 384 kb/s
Maximum bit rate                         : 395 kb/s
Channel(s)                               : 6 channels
Channel layout                           : L R C LFE Ls Rs
Sampling rate                            : 48.0 kHz
Frame rate                               : 31.250 FPS (1536 SPF)
Compression mode                         : Lossy
Delay relative to video                  : 3 ms
Stream size                              : 255 MiB (3%)
Language                                 : Portuguese
Service kind                             : Complete Main

Audio #2
ID                                       : 304 (0x130)
Menu ID                                  : 1 (0x1)
Format                                   : MPEG Audio
Format version                           : Version 1
Format profile                           : Layer 2
Codec ID                                 : 4
Duration                                 : 1 h 32 min
Bit rate mode                            : Constant
Bit rate                                 : 192 kb/s
Maximum bit rate                         : 207 kb/s
Channel(s)                               : 2 channels
Sampling rate                            : 48.0 kHz
Frame rate                               : 41.667 FPS (1152 SPF)
Compression mode                         : Lossy
Delay relative to video                  : 15 ms
Stream size                              : 127 MiB (1%)
Language                                 : English
</pre>
</div>
<div class="bbCodeBlock bbCodeVfcHH HiddenContent">
<div class="attribution type">Hidden Content:</div>
<blockquote>You must reply before you can see the hidden data contained here.</blockquote>
</div>ss
<div class="messageTextEndMarker">&nbsp;</div>
</blockquote>
</article>]]></description>
                <author><![CDATA[ilya2129]]></author>
                </item>

                
                <item>
                <title><![CDATA[【HD Live Performances】HDTV - The Chainsmokers - Live @ The Town 2023 HDTV H264 1080i DD5.1-ilya2129]]></title>
                <link><![CDATA[https://sharemania.us/threads/the-chainsmokers-live-the-town-2023-hdtv-h264-1080i-dd5-1-ilya2129.227981/]]></link>
                <description><![CDATA[<article>
<blockquote class="messageText SelectQuoteContainer ugc baseHtml">
<div style="text-align: center"><img src="https://i122.fastpic.org/big/2023/0903/f2/ce9f496df0f384cc9c966a9eba2bd3f2.png" class="bbCodeImage LbImage" alt="[​IMG]" data-url="https://i122.fastpic.org/big/2023/0903/f2/ce9f496df0f384cc9c966a9eba2bd3f2.png" style=""><br>
<br>
<a href="https://postimg.cc/xkqJPnSQ" target="_blank" class="externalLink" rel="nofollow"><img src="https://i.postimg.cc/xkqJPnSQ/vlcsnap-2023-09-08-13h18m44s574.png" class="bbCodeImage LbImage" alt="[​IMG]" data-url="https://i.postimg.cc/xkqJPnSQ/vlcsnap-2023-09-08-13h18m44s574.png"></a> <a href="https://postimg.cc/z3wBKVRW" target="_blank" class="externalLink" rel="nofollow"><img src="https://i.postimg.cc/z3wBKVRW/vlcsnap-2023-09-08-13h18m48s082.png" class="bbCodeImage LbImage" alt="[​IMG]" data-url="https://i.postimg.cc/z3wBKVRW/vlcsnap-2023-09-08-13h18m48s082.png"></a> <a href="https://postimg.cc/f36LjdK7" target="_blank" class="externalLink" rel="nofollow"><img src="https://i.postimg.cc/f36LjdK7/vlcsnap-2023-09-08-13h18m52s061.png" class="bbCodeImage LbImage" alt="[​IMG]" data-url="https://i.postimg.cc/f36LjdK7/vlcsnap-2023-09-08-13h18m52s061.png"></a> <a href="https://postimg.cc/7fxLVwgR" target="_blank" class="externalLink" rel="nofollow"><img src="https://i.postimg.cc/7fxLVwgR/vlcsnap-2023-09-08-13h18m55s830.png" class="bbCodeImage LbImage" alt="[​IMG]" data-url="https://i.postimg.cc/7fxLVwgR/vlcsnap-2023-09-08-13h18m55s830.png"></a> <a href="https://postimg.cc/ZBpqfq7G" target="_blank" class="externalLink" rel="nofollow"><img src="https://i.postimg.cc/ZBpqfq7G/vlcsnap-2023-09-08-13h19m19s092.png" class="bbCodeImage LbImage" alt="[​IMG]" data-url="https://i.postimg.cc/ZBpqfq7G/vlcsnap-2023-09-08-13h19m19s092.png"></a> <a href="https://postimg.cc/MfYpSF8t" target="_blank" class="externalLink" rel="nofollow"><img src="https://i.postimg.cc/MfYpSF8t/vlcsnap-2023-09-08-13h19m22s394.png" class="bbCodeImage LbImage" alt="[​IMG]" data-url="https://i.postimg.cc/MfYpSF8t/vlcsnap-2023-09-08-13h19m22s394.png"></a> <br>
​</div><br>
<div class="bbCodeBlock bbCodeCode">
<div class="type">Code:</div>
<pre>General
ID                                       : 1 (0x1)
Complete name                            : D:\The Chainsmokers - Live @ The Town 2023 HDTV H264 1080i DD5.1-ilya2129.ts
Format                                   : MPEG-TS
File size                                : 7.80 GiB
Duration                                 : 1 h 17 min
Overall bit rate mode                    : Variable
Overall bit rate                         : 14.5 Mb/s
Frame rate                               : 29.970 FPS

Video
ID                                       : 302 (0x12E)
Menu ID                                  : 1 (0x1)
Format                                   : AVC
Format/Info                              : Advanced Video Codec
Format profile                           : High@L4
Format settings                          : CABAC / 4 Ref Frames
Format settings, CABAC                   : Yes
Format settings, Reference frames        : 4 frames
Format settings, GOP                     : M=4, N=32
Codec ID                                 : 27
Duration                                 : 1 h 17 min
Bit rate mode                            : Variable
Bit rate                                 : 13.0 Mb/s
Maximum bit rate                         : 18.1 Mb/s
Width                                    : 1 920 pixels
Height                                   : 1 080 pixels
Display aspect ratio                     : 16:9
Frame rate                               : 29.970 (30000/1001) FPS
Standard                                 : Component
Color space                              : YUV
Chroma subsampling                       : 4:2:0
Bit depth                                : 8 bits
Scan type                                : MBAFF
Scan type, store method                  : Interleaved fields
Scan order                               : Top Field First
Bits/(Pixel*Frame)                       : 0.209
Stream size                              : 6.99 GiB (90%)
Color range                              : Limited
Color primaries                          : BT.709
Transfer characteristics                 : BT.709
Matrix coefficients                      : BT.709

Audio #1
ID                                       : 303 (0x12F)
Menu ID                                  : 1 (0x1)
Format                                   : AC-3
Format/Info                              : Audio Coding 3
Commercial name                          : Dolby Digital
Codec ID                                 : 129
Duration                                 : 1 h 17 min
Bit rate mode                            : Constant
Bit rate                                 : 384 kb/s
Maximum bit rate                         : 395 kb/s
Channel(s)                               : 6 channels
Channel layout                           : L R C LFE Ls Rs
Sampling rate                            : 48.0 kHz
Frame rate                               : 31.250 FPS (1536 SPF)
Compression mode                         : Lossy
Delay relative to video                  : 5 ms
Stream size                              : 212 MiB (3%)
Language                                 : Portuguese
Service kind                             : Complete Main

Audio #2
ID                                       : 304 (0x130)
Menu ID                                  : 1 (0x1)
Format                                   : MPEG Audio
Format version                           : Version 1
Format profile                           : Layer 2
Codec ID                                 : 4
Duration                                 : 1 h 17 min
Bit rate mode                            : Constant
Bit rate                                 : 192 kb/s
Maximum bit rate                         : 207 kb/s
Channel(s)                               : 2 channels
Sampling rate                            : 48.0 kHz
Frame rate                               : 41.667 FPS (1152 SPF)
Compression mode                         : Lossy
Delay relative to video                  : 17 ms
Stream size                              : 106 MiB (1%)
Language                                 : Portuguese

Audio #3
ID                                       : 305 (0x131)
Menu ID                                  : 1 (0x1)
Format                                   : MPEG Audio
Format version                           : Version 1
Format profile                           : Layer 2
Codec ID                                 : 4
Duration                                 : 1 h 17 min
Bit rate mode                            : Constant
Bit rate                                 : 192 kb/s
Maximum bit rate                         : 207 kb/s
Channel(s)                               : 2 channels
Sampling rate                            : 48.0 kHz
Frame rate                               : 41.667 FPS (1152 SPF)
Compression mode                         : Lossy
Delay relative to video                  : 17 ms
Stream size                              : 106 MiB (1%)
Language                                 : English


</pre>
</div>
<div class="bbCodeBlock bbCodeVfcHH HiddenContent">
<div class="attribution type">Hidden Content:</div>
<blockquote>You must reply before you can see the hidden data contained here.</blockquote>
</div>ss
<div class="messageTextEndMarker">&nbsp;</div>
</blockquote>
</article>]]></description>
                <author><![CDATA[ilya2129]]></author>
                </item>

                </channel></rss>